<svg aria-hidden="true" style="position: absolute; width: 0; height: 0; overflow: hidden;" version="1.1" xmlns="http://www.w3.org/2000/svg" xmlns:xlink="http://www.w3.org/1999/xlink">
<defs>
<symbol id="icon-document" viewBox="0 0 32 32"   >
<path d="M20.815 2.112c2.209-0.316 4.185 1.398 4.185 3.63v1.835c1.586 0.838 2.667 2.505 2.667 4.423v13.333c0 2.761-2.239 5-5 5h-13.333c-2.761 0-5-2.239-5-5v-18.667c0-0.012 0-0.025 0.001-0.037-0-0.019-0.001-0.038-0.001-0.058 0-1.208 0.888-2.233 2.085-2.404l14.397-2.057zM6.333 9v16.333c0 1.657 1.343 3 3 3h13.333c1.657 0 3-1.343 3-3v-13.333c0-1.657-1.343-3-3-3h-16.333zM6.761 7h16.239v-1.259c0-1.014-0.898-1.793-1.902-1.65l-14.397 2.057c-0.211 0.030-0.368 0.211-0.368 0.424 0 0.236 0.192 0.428 0.428 0.428zM9.667 16c0-0.552 0.448-1 1-1h10.667c0.552 0 1 0.448 1 1s-0.448 1-1 1h-10.667c-0.552 0-1-0.448-1-1zM9.667 20.667c0-0.552 0.448-1 1-1h7.333c0.552 0 1 0.448 1 1s-0.448 1-1 1h-7.333c-0.552 0-1-0.448-1-1z"></path>
</symbol>
<symbol id="icon-water" viewBox="0 0 32 32" >
<path d="M23.955 28.421c-1.941 0-3.52-1.579-3.52-3.52 0-0.716 0.214-1.406 0.62-1.995l1.054 0.725c-0.257 0.374-0.394 0.813-0.394 1.269 0 1.235 1.005 2.24 2.24 2.24s2.24-1.005 2.24-2.24c0-0.48-0.15-0.938-0.433-1.323l1.032-0.757c0.445 0.607 0.681 1.326 0.681 2.081 0 1.941-1.579 3.52-3.52 3.52z"></path>
<path d="M26.598 24.379c-0.222 0-0.437-0.115-0.556-0.322l-2.088-3.64-2.087 3.64c-0.176 0.307-0.567 0.413-0.874 0.237s-0.412-0.567-0.237-0.874l2.165-3.775c0.243-0.422 0.619-0.665 1.033-0.665s0.79 0.243 1.033 0.665l2.165 3.776c0.176 0.307 0.070 0.698-0.237 0.874-0.091 0.053-0.201 0.085-0.317 0.085-0 0-0 0-0 0h0zM16.946 2.56c0.177 0 0.32-0.143 0.32-0.32v-0.64c0-0.177-0.143-0.32-0.32-0.32h-8c-0 0-0 0-0 0-0.177 0-0.32 0.143-0.32 0.32 0 0 0 0 0 0v0 0.64c0 0.177 0.143 0.32 0.32 0.32h8zM16.946 3.84h-8c-0.884 0-1.6-0.716-1.6-1.6v-0.64c0-0.884 0.716-1.6 1.6-1.6h8c0.884 0 1.6 0.716 1.6 1.6v0.64c0 0.884-0.716 1.6-1.6 1.6z"></path>
<path d="M10.867 8.229v-5.669h4.16v5.669h-4.16zM13.747 6.949v-3.109h-1.6v3.109h1.6z"></path>
<path d="M8.672 30.667c0.177 0 0.32-0.143 0.32-0.32v-16.302c0-1.414 1.146-2.56 2.56-2.56h8.368c1.414 0 2.56 1.146 2.56 2.56v2.091c0 0.353 0.287 0.64 0.64 0.64h1.952c0.353 0 0.64-0.287 0.64-0.64v-2.155c0-3.181-2.579-5.76-5.76-5.76h-8.432c-3.181 0-5.76 2.579-5.76 5.76v16.366c0 0.177 0.143 0.32 0.32 0.32h2.592zM8.672 31.947h-2.592c-0.884 0-1.6-0.716-1.6-1.6v-16.366c0-3.888 3.152-7.040 7.040-7.040h8.432c3.888 0 7.040 3.152 7.040 7.040v2.155c0 1.060-0.86 1.92-1.92 1.92h-1.952c-1.060 0-1.92-0.86-1.92-1.92v-2.091c0-0.707-0.573-1.28-1.28-1.28h-8.368c-0.707 0-1.28 0.573-1.28 1.28v16.302c0 0.884-0.716 1.6-1.6 1.6z"></path>
</symbol>
<symbol id="icon-fuel" viewBox="0 0 32 32" >
<path d="M16.321 28.453c0.53 0 0.96-0.43 0.96-0.96v-23.013c0-0.53-0.43-0.96-0.96-0.96h-11.841c-0.53 0-0.96 0.43-0.96 0.96v23.013c0 0.53 0.43 0.96 0.96 0.96h11.841zM16.321 29.733h-11.841c-1.237 0-2.24-1.003-2.24-2.24v-23.013c0-1.237 1.003-2.24 2.24-2.24h11.841c1.237 0 2.24 1.003 2.24 2.24v23.013c0 1.237-1.003 2.24-2.24 2.24zM28.465 8.544v15.633c0 1.544-1.252 2.796-2.796 2.796s-2.797-1.252-2.797-2.796c0-0.353-0.287-0.64-0.64-0.64s-0.64 0.287-0.64 0.64c0 2.251 1.825 4.076 4.076 4.076s4.077-1.825 4.077-4.076v-15.633c0-0.353-0.287-0.64-0.64-0.64s-0.64 0.287-0.64 0.64z"></path>
<path d="M22.872 24.357v-12.837c0-0.353-0.287-0.64-0.64-0.64s-0.64 0.287-0.64 0.64v12.837c0 0.353 0.287 0.64 0.64 0.64s0.64-0.287 0.64-0.64z"></path>
<path d="M22.873 11.422v-1.078c0-1.544-1.252-2.796-2.796-2.796s-2.796 1.252-2.796 2.796v1.078c0 0.353 0.287 0.64 0.64 0.64s0.64-0.287 0.64-0.64v-1.078c0-0.837 0.679-1.516 1.516-1.516s1.516 0.679 1.516 1.516v1.078c0 0.353 0.287 0.64 0.64 0.64s0.64-0.287 0.64-0.64zM29.453 7.968l-5.46-5.46c-0.25-0.25-0.655-0.25-0.905 0s-0.25 0.655 0 0.905l5.46 5.46c0.25 0.25 0.655 0.25 0.905 0s0.25-0.655 0-0.905zM13.714 8.797c0.177 0 0.32-0.143 0.32-0.32v-1.44c0-0.177-0.143-0.32-0.32-0.32h-6.666c-0 0-0 0-0 0-0.177 0-0.32 0.143-0.32 0.32 0 0 0 0 0 0v0 1.44c0 0.177 0.143 0.32 0.32 0.32h6.666zM13.714 10.078h-6.666c-0.884 0-1.6-0.716-1.6-1.6v-1.44c0-0.884 0.716-1.6 1.6-1.6h6.666c0.884 0 1.6 0.716 1.6 1.6v1.44c0 0.884-0.716 1.6-1.6 1.6z"></path>
<path d="M29.030 11.213h-1.531c-0.353 0-0.64-0.287-0.64-0.64v-4.602c0-0.353-0.287-0.64-0.64-0.64s-0.64 0.287-0.64 0.64v4.602c0 1.060 0.86 1.92 1.92 1.92h1.531c0.353 0 0.64-0.287 0.64-0.64s-0.287-0.64-0.64-0.64z"></path>
</symbol>
<symbol id="icon-calendar" viewBox="0 0 32 32" >
<path d="M22.667 18.667c0.736 0 1.333-0.597 1.333-1.333s-0.597-1.333-1.333-1.333c-0.736 0-1.333 0.597-1.333 1.333s0.597 1.333 1.333 1.333z"></path>
<path d="M22.667 24c0.736 0 1.333-0.597 1.333-1.333s-0.597-1.333-1.333-1.333c-0.736 0-1.333 0.597-1.333 1.333s0.597 1.333 1.333 1.333z"></path>
<path d="M17.333 17.333c0 0.736-0.597 1.333-1.333 1.333s-1.333-0.597-1.333-1.333c0-0.736 0.597-1.333 1.333-1.333s1.333 0.597 1.333 1.333z"></path>
<path d="M17.333 22.667c0 0.736-0.597 1.333-1.333 1.333s-1.333-0.597-1.333-1.333c0-0.736 0.597-1.333 1.333-1.333s1.333 0.597 1.333 1.333z"></path>
<path d="M9.333 18.667c0.736 0 1.333-0.597 1.333-1.333s-0.597-1.333-1.333-1.333c-0.736 0-1.333 0.597-1.333 1.333s0.597 1.333 1.333 1.333z"></path>
<path d="M9.333 24c0.736 0 1.333-0.597 1.333-1.333s-0.597-1.333-1.333-1.333c-0.736 0-1.333 0.597-1.333 1.333s0.597 1.333 1.333 1.333z"></path>
<path d="M9.333 2.333c-0.552 0-1 0.448-1 1v1.103c-0.347 0.026-0.675 0.060-0.985 0.101-1.563 0.21-2.829 0.653-3.826 1.651s-1.441 2.263-1.651 3.826c-0.204 1.519-0.204 3.46-0.204 5.91v2.817c-0 2.45-0 4.391 0.204 5.91 0.21 1.563 0.653 2.829 1.651 3.826s2.263 1.441 3.826 1.651c1.519 0.204 3.46 0.204 5.91 0.204h5.484c2.45 0 4.391 0 5.91-0.204 1.563-0.21 2.829-0.653 3.826-1.651s1.441-2.263 1.651-3.826c0.204-1.519 0.204-3.46 0.204-5.91v-2.817c0-2.45 0-4.391-0.204-5.91-0.21-1.563-0.653-2.829-1.651-3.826s-2.263-1.441-3.826-1.651c-0.311-0.042-0.639-0.075-0.985-0.101v-1.103c0-0.552-0.448-1-1-1s-1 0.448-1 1v1.017c-0.883-0.017-1.855-0.017-2.925-0.017h-5.484c-1.069 0-2.042 0-2.925 0.017v-1.017c0-0.552-0.448-1-1-1zM7.614 6.52c1.37-0.184 3.176-0.186 5.719-0.186h5.333c2.542 0 4.349 0.002 5.719 0.186 1.341 0.18 2.114 0.519 2.679 1.083s0.903 1.337 1.083 2.679c0.031 0.227 0.056 0.466 0.077 0.719h-24.449c0.021-0.253 0.047-0.492 0.077-0.719 0.18-1.341 0.519-2.114 1.083-2.679s1.337-0.902 2.679-1.083zM3.667 16c0-1.139 0-2.13 0.017-3h24.632c0.017 0.87 0.017 1.861 0.017 3v2.667c0 2.542-0.002 4.349-0.186 5.719-0.18 1.341-0.519 2.114-1.083 2.679s-1.337 0.903-2.679 1.083c-1.37 0.184-3.177 0.186-5.719 0.186h-5.333c-2.542 0-4.349-0.002-5.719-0.186-1.341-0.18-2.114-0.519-2.679-1.083s-0.902-1.337-1.083-2.679c-0.184-1.37-0.186-3.177-0.186-5.719v-2.667z"></path>
</symbol>
<symbol id="icon-question" viewBox="0 0 32 32">
<path d="M16 10.333c-0.828 0-1.5 0.672-1.5 1.5 0 0.552-0.448 1-1 1s-1-0.448-1-1c0-1.933 1.567-3.5 3.5-3.5s3.5 1.567 3.5 3.5c0 1.284-0.693 2.406-1.72 3.014-0.262 0.155-0.479 0.325-0.62 0.491-0.137 0.161-0.16 0.267-0.16 0.329v1.667c0 0.552-0.448 1-1 1s-1-0.448-1-1v-1.667c0-0.675 0.295-1.222 0.635-1.623 0.336-0.396 0.755-0.698 1.127-0.918 0.444-0.263 0.738-0.744 0.738-1.293 0-0.828-0.672-1.5-1.5-1.5z"></path>
<path d="M16 22.667c0.736 0 1.333-0.597 1.333-1.333s-0.597-1.333-1.333-1.333c-0.736 0-1.333 0.597-1.333 1.333s0.597 1.333 1.333 1.333z"></path>
<path d="M15.923 1.667h0.153c3.078 0 5.49-0 7.372 0.253 1.926 0.259 3.446 0.799 4.639 1.993s1.733 2.713 1.993 4.639c0.253 1.882 0.253 4.294 0.253 7.372v0.153c0 3.078 0 5.49-0.253 7.372-0.259 1.926-0.799 3.446-1.993 4.639s-2.713 1.733-4.639 1.993c-1.882 0.253-4.294 0.253-7.372 0.253h-0.153c-3.078 0-5.49 0-7.372-0.253-1.926-0.259-3.446-0.799-4.639-1.993s-1.734-2.713-1.993-4.639c-0.253-1.882-0.253-4.294-0.253-7.372v-0.153c0-3.078-0-5.49 0.253-7.372 0.259-1.926 0.799-3.446 1.993-4.639s2.713-1.734 4.639-1.993c1.882-0.253 4.294-0.253 7.372-0.253zM8.818 3.902c-1.705 0.229-2.732 0.665-3.492 1.425s-1.195 1.787-1.425 3.492c-0.233 1.733-0.235 4.011-0.235 7.182s0.002 5.449 0.235 7.182c0.229 1.705 0.665 2.732 1.425 3.492s1.787 1.195 3.492 1.425c1.733 0.233 4.011 0.235 7.182 0.235s5.449-0.002 7.182-0.235c1.705-0.229 2.732-0.665 3.492-1.425s1.195-1.787 1.425-3.492c0.233-1.733 0.235-4.011 0.235-7.182s-0.002-5.449-0.235-7.182c-0.229-1.705-0.665-2.732-1.425-3.492s-1.787-1.195-3.492-1.425c-1.733-0.233-4.011-0.235-7.182-0.235s-5.449 0.002-7.182 0.235z"></path>
</symbol>
</defs>
</svg>
