<svg aria-hidden="true" style="position:absolute;width:0;height:0;overflow:hidden" xmlns="http://www.w3.org/2000/svg">
  <defs>
    <symbol id="icon-burger" viewBox="0 0 32 32">
      <path d="M3.2 5.12c-0.005-0-0.012-0-0.018-0-0.707 0-1.28 0.573-1.28 1.28s0.573 1.28 1.28 1.28c0.006 0 0.013-0 0.019-0h25.599c0.005 0 0.012 0 0.018 0 0.707 0 1.28-0.573 1.28-1.28s-0.573-1.28-1.28-1.28c-0.006 0-0.013 0-0.019 0h-25.599zM3.2 14.72c-0.005-0-0.012-0-0.018-0-0.707 0-1.28 0.573-1.28 1.28s0.573 1.28 1.28 1.28c0.006 0 0.013-0 0.019-0h25.599c0.005 0 0.012 0 0.018 0 0.707 0 1.28-0.573 1.28-1.28s-0.573-1.28-1.28-1.28c-0.006 0-0.013 0-0.019 0h-25.599zM3.2 24.32c-0.005-0-0.012-0-0.018-0-0.707 0-1.28 0.573-1.28 1.28s0.573 1.28 1.28 1.28c0.006 0 0.013-0 0.019-0h25.599c0.005 0 0.012 0 0.018 0 0.707 0 1.28-0.573 1.28-1.28s-0.573-1.28-1.28-1.28c-0.006 0-0.013 0-0.019 0h-25.599z"></path>
    </symbol>
    <symbol id="icon-camper-1" viewBox="0 0 32 32" >
      <path d="M1.83 6.06h8.68c.08 0 .14-.03.2-.08l.83-.81c.24-.24.57-.37.9-.37h13.18c.61 0 1.18.3 1.52.8l1.58 2.3c.23.33.25.75.06 1.1s-.56.56-.97.56h-6.79v.67h3.48c.92 0 1.75.54 2.11 1.36l2.04 4.66 1.78.7A2.42 2.42 0 0 1 32 19.2v4.31c0 .65-.54 1.17-1.2 1.17h-2.07c-.24 1.43-1.52 2.52-3.05 2.52s-2.8-1.1-3.04-2.52H11.3c-.24 1.43-1.52 2.52-3.05 2.52s-2.8-1.1-3.04-2.52H1.06c-.58 0-1.06-.46-1.06-1.04V7.84c0-.98.82-1.78 1.83-1.78zm23.85 20.16c1.15 0 2.08-.91 2.08-2.03s-.93-2.03-2.08-2.03c-1.14 0-2.07.91-2.07 2.03s.93 2.03 2.07 2.03zm-4.66-2.52h1.62l.01-.08.01-.05.03-.11v-.03l.05-.13v-.04l.04-.1.02-.05a1.38 1.38 0 0 1 .06-.13l.03-.07.03-.06.04-.07a1.35 1.35 0 0 1 .07-.12c0-.02.02-.03.03-.05l.05-.07c0-.02.02-.03.03-.05l.05-.07.03-.04.07-.1h.02l.09-.11.03-.03.06-.07.04-.04.07-.06.04-.04.06-.05.05-.04.06-.05c.02 0 .04-.02.05-.03l.07-.05.05-.03.07-.05c.02 0 .03-.02.05-.03l.08-.04.04-.02.12-.06a3 3 0 0 1 .14-.07l.04-.01.1-.04.04-.01.09-.03.06-.02.08-.02.06-.02.08-.02h.06l.09-.02.06-.01.09-.01.05-.01h.1l.05-.01a2.51 2.51 0 0 1 .3 0h.05l.1.01h.06l.1.02h.05a1.16 1.16 0 0 1 .15.03l.08.02.06.02.08.02.06.02.09.02.05.02.09.04a3 3 0 0 1 .17.07h.01l.12.07.04.02.08.04.05.03.07.05.05.03.07.05a1.46 1.46 0 0 1 .11.08l.05.04.06.05.04.04.07.06a1.33 1.33 0 0 1 .13.14l.1.1v.02a3.46 3.46 0 0 1 .16.2l.04.05.04.07.03.05.04.07.03.05.04.07.03.06.03.07.03.05c0 .03.02.06.03.08l.02.05.03.1.01.04.04.13.01.03.03.11v.05l.02.08h2.08c.1 0 .18-.09.18-.19v-2.06h-.79v-.98h.8V19.2c0-.6-.37-1.12-.94-1.34l-1.89-.74h-7.15v6.58zm0-7.56h6.48l-1.81-4.16c-.2-.46-.67-.76-1.19-.76h-3.48v4.92zM8.25 26.22c1.15 0 2.08-.91 2.08-2.03a2.05 2.05 0 0 0-2.18-2.03c-.96.05-1.75.73-1.93 1.62l-.02.1a1.96 1.96 0 0 0-.03.3c0 1.13.94 2.04 2.08 2.04zm-7.24-5.75h.79v.98H1v2.2c0 .02.03.05.06.05h4.15l.01-.08.01-.05a2.03 2.03 0 0 1 .09-.31l.03-.1.02-.04.03-.08.03-.06.03-.07.03-.06.04-.07c0-.02.02-.03.03-.05l.04-.07a1.36 1.36 0 0 1 .1-.17l.06-.07.03-.04a3.3 3.3 0 0 1 .18-.21l.03-.03a2.15 2.15 0 0 1 .17-.17l.04-.03.06-.06.05-.03.06-.05.05-.04.07-.05c.02 0 .03-.02.05-.03l.07-.04.05-.03.08-.05.04-.02a2.12 2.12 0 0 1 .26-.12l.04-.02.1-.03.05-.02.08-.03.06-.02.08-.02.06-.02.08-.01.06-.02.09-.01a2.22 2.22 0 0 1 .15-.02h.06l.1-.01h.05a2.51 2.51 0 0 1 .3 0h.2l.1.02h.05a1.16 1.16 0 0 1 .15.04l.08.01.06.02.09.02.05.02.09.03a3.25 3.25 0 0 1 .14.05l.04.02a3 3 0 0 1 .13.05h.01l.12.07.04.02a3.33 3.33 0 0 1 .13.08l.07.04.05.03.07.05a1.46 1.46 0 0 1 .11.09c.02 0 .03.02.05.03l.06.06c.02 0 .03.02.04.03l.07.06.04.04.06.07a3.1 3.1 0 0 1 .12.13l.02.02.07.1.03.03.06.08.03.04.04.07.03.05.05.07c0 .02.02.04.03.05 0 .03.02.05.03.08l.03.05.03.07.03.06.03.08.02.05.03.1.02.03c0 .05.02.1.03.14l.01.02.03.12v.04l.02.08h8.72V9.07c0-.27.23-.49.5-.49h7.3s.05 0 .07-.04 0-.08 0-.09l-1.58-2.3a.82.82 0 0 0-.68-.36H12.45a.28.28 0 0 0-.2.08l-.83.8c-.24.25-.56.38-.9.38H1.83a.8.8 0 0 0-.82.8v12.62z"/>
      <path d="M3.88 9.84h6.17c.7 0 1.29.56 1.29 1.26v2.87c0 .7-.58 1.26-1.3 1.26H3.88c-.72 0-1.3-.56-1.3-1.26V11.1c0-.7.58-1.26 1.3-1.26zm-.29 4.13c0 .15.13.28.29.28h6.17c.15 0 .28-.13.28-.28V11.1a.28.28 0 0 0-.28-.28H3.87a.28.28 0 0 0-.28.28v2.87z"/>
    </symbol>
    <symbol id="icon-camper-2" viewBox="0 0 32 32">
      <path d="M1.83 6.06h8.68c.08 0 .14-.03.2-.08l.83-.81c.24-.24.57-.37.9-.37h13.18c.61 0 1.18.3 1.52.8l1.58 2.3c.23.33.25.75.06 1.1s-.56.56-.97.56h-6.79v.67h3.48c.92 0 1.75.54 2.11 1.36l2.04 4.66 1.78.7A2.42 2.42 0 0 1 32 19.2v4.31c0 .65-.54 1.17-1.2 1.17h-2.07c-.24 1.43-1.52 2.52-3.05 2.52s-2.8-1.1-3.04-2.52H11.3c-.24 1.43-1.52 2.52-3.05 2.52s-2.8-1.1-3.04-2.52H1.06c-.58 0-1.06-.46-1.06-1.04V7.84c0-.98.82-1.78 1.83-1.78zm23.85 20.16c1.15 0 2.08-.91 2.08-2.03s-.93-2.03-2.08-2.03c-1.14 0-2.07.91-2.07 2.03s.93 2.03 2.07 2.03zm-4.66-2.52h1.62l.01-.08.01-.05.03-.11v-.03l.05-.13v-.04l.04-.1.02-.05a1.38 1.38 0 0 1 .06-.13l.03-.07.03-.06.04-.07a1.35 1.35 0 0 1 .07-.12c0-.02.02-.03.03-.05l.05-.07c0-.02.02-.03.03-.05l.05-.07.03-.04.07-.1h.02l.09-.11.03-.03.06-.07.04-.04.07-.06.04-.04.06-.05.05-.04.06-.05c.02 0 .04-.02.05-.03l.07-.05.05-.03.07-.05c.02 0 .03-.02.05-.03l.08-.04.04-.02.12-.06a3 3 0 0 1 .14-.07l.04-.01.1-.04.04-.01.09-.03.06-.02.08-.02.06-.02.08-.02h.06l.09-.02.06-.01.09-.01.05-.01h.1l.05-.01a2.51 2.51 0 0 1 .3 0h.05l.1.01h.06l.1.02h.05a1.16 1.16 0 0 1 .15.03l.08.02.06.02.08.02.06.02.09.02.05.02.09.04a3 3 0 0 1 .17.07h.01l.12.07.04.02.08.04.05.03.07.05.05.03.07.05a1.46 1.46 0 0 1 .11.08l.05.04.06.05.04.04.07.06a1.33 1.33 0 0 1 .13.14l.1.1v.02a3.46 3.46 0 0 1 .16.2l.04.05.04.07.03.05.04.07.03.05.04.07.03.06.03.07.03.05c0 .03.02.06.03.08l.02.05.03.1.01.04.04.13.01.03.03.11v.05l.02.08h2.08c.1 0 .18-.09.18-.19v-2.06h-.79v-.98h.8V19.2c0-.6-.37-1.12-.94-1.34l-1.89-.74h-7.15v6.58zm0-7.56h6.48l-1.81-4.16c-.2-.46-.67-.76-1.19-.76h-3.48v4.92zM8.25 26.22c1.15 0 2.08-.91 2.08-2.03a2.05 2.05 0 0 0-2.18-2.03c-.96.05-1.75.73-1.93 1.62l-.02.1a1.96 1.96 0 0 0-.03.3c0 1.13.94 2.04 2.08 2.04zm-7.24-5.75h.79v.98H1v2.2c0 .02.03.05.06.05h4.15l.01-.08.01-.05a2.03 2.03 0 0 1 .09-.31l.03-.1.02-.04.03-.08.03-.06.03-.07.03-.06.04-.07c0-.02.02-.03.03-.05l.04-.07a1.36 1.36 0 0 1 .1-.17l.06-.07.03-.04a3.3 3.3 0 0 1 .18-.21l.03-.03a2.15 2.15 0 0 1 .17-.17l.04-.03.06-.06.05-.03.06-.05.05-.04.07-.05c.02 0 .03-.02.05-.03l.07-.04.05-.03.08-.05.04-.02a2.12 2.12 0 0 1 .26-.12l.04-.02.1-.03.05-.02.08-.03.06-.02.08-.02.06-.02.08-.01.06-.02.09-.01a2.22 2.22 0 0 1 .15-.02h.06l.1-.01h.05a2.51 2.51 0 0 1 .3 0h.2l.1.02h.05a1.16 1.16 0 0 1 .15.04l.08.01.06.02.09.02.05.02.09.03a3.25 3.25 0 0 1 .14.05l.04.02a3 3 0 0 1 .13.05h.01l.12.07.04.02a3.33 3.33 0 0 1 .13.08l.07.04.05.03.07.05a1.46 1.46 0 0 1 .11.09c.02 0 .03.02.05.03l.06.06c.02 0 .03.02.04.03l.07.06.04.04.06.07a3.1 3.1 0 0 1 .12.13l.02.02.07.1.03.03.06.08.03.04.04.07.03.05.05.07c0 .02.02.04.03.05 0 .03.02.05.03.08l.03.05.03.07.03.06.03.08.02.05.03.1.02.03c0 .05.02.1.03.14l.01.02.03.12v.04l.02.08h8.72V9.07c0-.27.23-.49.5-.49h7.3s.05 0 .07-.04 0-.08 0-.09l-1.58-2.3a.82.82 0 0 0-.68-.36H12.45a.28.28 0 0 0-.2.08l-.83.8c-.24.25-.56.38-.9.38H1.83a.8.8 0 0 0-.82.8v12.62z"/>
      <path d="M14.08 9.84h3.2c.64 0 1.16.5 1.16 1.14V21.5a.5.5 0 0 1-.5.5h-4.52a.5.5 0 0 1-.5-.5V10.98c0-.63.52-1.14 1.16-1.14zm-.16 11.18h3.51v-5.79h-3.5v5.79zm0-6.77h3.51v-3.27a.16.16 0 0 0-.16-.16h-3.19a.16.16 0 0 0-.16.16v3.27z"/>
    </symbol>
    <symbol id="icon-camper-3" viewBox="0 0 32 32">
      <path d="M1.83 6.06h8.68c.08 0 .14-.03.2-.08l.83-.81c.24-.24.57-.37.9-.37h13.18c.61 0 1.18.3 1.52.8l1.58 2.3c.23.33.25.75.06 1.1s-.56.56-.97.56h-6.79v.67h3.48c.92 0 1.75.54 2.11 1.36l2.04 4.66 1.78.7A2.42 2.42 0 0 1 32 19.2v4.31c0 .65-.54 1.17-1.2 1.17h-2.07c-.24 1.43-1.52 2.52-3.05 2.52s-2.8-1.1-3.04-2.52H11.3c-.24 1.43-1.52 2.52-3.05 2.52s-2.8-1.1-3.04-2.52H1.06c-.58 0-1.06-.46-1.06-1.04V7.84c0-.98.82-1.78 1.83-1.78zm23.85 20.16c1.15 0 2.08-.91 2.08-2.03s-.93-2.03-2.08-2.03c-1.14 0-2.07.91-2.07 2.03s.93 2.03 2.07 2.03zm-4.66-2.52h1.62l.01-.08.01-.05.03-.11v-.03l.05-.13v-.04l.04-.1.02-.05a1.38 1.38 0 0 1 .06-.13l.03-.07.03-.06.04-.07a1.35 1.35 0 0 1 .07-.12c0-.02.02-.03.03-.05l.05-.07c0-.02.02-.03.03-.05l.05-.07.03-.04.07-.1h.02l.09-.11.03-.03.06-.07.04-.04.07-.06.04-.04.06-.05.05-.04.06-.05c.02 0 .04-.02.05-.03l.07-.05.05-.03.07-.05c.02 0 .03-.02.05-.03l.08-.04.04-.02.12-.06a3 3 0 0 1 .14-.07l.04-.01.1-.04.04-.01.09-.03.06-.02.08-.02.06-.02.08-.02h.06l.09-.02.06-.01.09-.01.05-.01h.1l.05-.01a2.51 2.51 0 0 1 .3 0h.05l.1.01h.06l.1.02h.05a1.16 1.16 0 0 1 .15.03l.08.02.06.02.08.02.06.02.09.02.05.02.09.04a3 3 0 0 1 .17.07h.01l.12.07.04.02.08.04.05.03.07.05.05.03.07.05a1.46 1.46 0 0 1 .11.08l.05.04.06.05.04.04.07.06a1.33 1.33 0 0 1 .13.14l.1.1v.02a3.46 3.46 0 0 1 .16.2l.04.05.04.07.03.05.04.07.03.05.04.07.03.06.03.07.03.05c0 .03.02.06.03.08l.02.05.03.1.01.04.04.13.01.03.03.11v.05l.02.08h2.08c.1 0 .18-.09.18-.19v-2.06h-.79v-.98h.8V19.2c0-.6-.37-1.12-.94-1.34l-1.89-.74h-7.15v6.58zm0-7.56h6.48l-1.81-4.16c-.2-.46-.67-.76-1.19-.76h-3.48v4.92zM8.25 26.22c1.15 0 2.08-.91 2.08-2.03a2.05 2.05 0 0 0-2.18-2.03c-.96.05-1.75.73-1.93 1.62l-.02.1a1.96 1.96 0 0 0-.03.3c0 1.13.94 2.04 2.08 2.04zm-7.24-5.75h.79v.98H1v2.2c0 .02.03.05.06.05h4.15l.01-.08.01-.05a2.03 2.03 0 0 1 .09-.31l.03-.1.02-.04.03-.08.03-.06.03-.07.03-.06.04-.07c0-.02.02-.03.03-.05l.04-.07a1.36 1.36 0 0 1 .1-.17l.06-.07.03-.04a3.3 3.3 0 0 1 .18-.21l.03-.03a2.15 2.15 0 0 1 .17-.17l.04-.03.06-.06.05-.03.06-.05.05-.04.07-.05c.02 0 .03-.02.05-.03l.07-.04.05-.03.08-.05.04-.02a2.12 2.12 0 0 1 .26-.12l.04-.02.1-.03.05-.02.08-.03.06-.02.08-.02.06-.02.08-.01.06-.02.09-.01a2.22 2.22 0 0 1 .15-.02h.06l.1-.01h.05a2.51 2.51 0 0 1 .3 0h.2l.1.02h.05a1.16 1.16 0 0 1 .15.04l.08.01.06.02.09.02.05.02.09.03a3.25 3.25 0 0 1 .14.05l.04.02a3 3 0 0 1 .13.05h.01l.12.07.04.02a3.33 3.33 0 0 1 .13.08l.07.04.05.03.07.05a1.46 1.46 0 0 1 .11.09c.02 0 .03.02.05.03l.06.06c.02 0 .03.02.04.03l.07.06.04.04.06.07a3.1 3.1 0 0 1 .12.13l.02.02.07.1.03.03.06.08.03.04.04.07.03.05.05.07c0 .02.02.04.03.05 0 .03.02.05.03.08l.03.05.03.07.03.06.03.08.02.05.03.1.02.03c0 .05.02.1.03.14l.01.02.03.12v.04l.02.08h8.72V9.07c0-.27.23-.49.5-.49h7.3s.05 0 .07-.04 0-.08 0-.09l-1.58-2.3a.82.82 0 0 0-.68-.36H12.45a.28.28 0 0 0-.2.08l-.83.8c-.24.25-.56.38-.9.38H1.83a.8.8 0 0 0-.82.8v12.62z"/>
      <path d="M14.08 9.84h3.2c.64 0 1.16.5 1.16 1.14V21.5a.5.5 0 0 1-.5.5h-4.52a.5.5 0 0 1-.5-.5V10.98c0-.63.52-1.14 1.16-1.14zm-.16 11.18h3.51v-5.79h-3.5v5.79zm0-6.77h3.51v-3.27a.16.16 0 0 0-.16-.16h-3.19a.16.16 0 0 0-.16.16v3.27zM3.88 9.84h6.17c.7 0 1.29.56 1.29 1.26v2.87c0 .7-.58 1.26-1.3 1.26H3.88c-.72 0-1.3-.56-1.3-1.26V11.1c0-.7.58-1.26 1.3-1.26zm-.29 4.13c0 .15.13.28.28.28h6.17c.16 0 .29-.13.29-.28V11.1a.28.28 0 0 0-.29-.28H3.87a.28.28 0 0 0-.28.28v2.87z"/>
    </symbol>
    <symbol id="icon-redHeart" viewBox="0 0 32 32">
      <path fill="#e44848" style="fill:var(--color1, #e44848);stroke:var(--color1, #e44848)" stroke="#e44848" stroke-linejoin="round" stroke-linecap="round" stroke-width="3.07" d="M27.79 6.15a7.35 7.35 0 0 0-10.38 0l-1.4 1.41-1.42-1.41A7.33 7.33 0 1 0 4.2 16.52l11.8 11.79 11.78-11.79a7.35 7.35 0 0 0 0-10.37z"/>
    </symbol>
   
    <symbol id="icon-heart" viewBox="0 0 33 32">
      <path stroke-linejoin="round" stroke-linecap="round" stroke-miterlimit="4" stroke-width="3.0667" d="M28.453 6.147c-0.681-0.681-1.49-1.222-2.379-1.591s-1.844-0.559-2.807-0.559-1.917 0.19-2.807 0.559c-0.89 0.369-1.699 0.909-2.38 1.591l-1.413 1.413-1.413-1.413c-1.376-1.376-3.241-2.148-5.187-2.148s-3.811 0.773-5.187 2.148c-1.376 1.376-2.148 3.241-2.148 5.187s0.773 3.811 2.148 5.187l11.787 11.787 11.787-11.787c0.681-0.681 1.222-1.49 1.591-2.38s0.559-1.844 0.559-2.807-0.19-1.917-0.559-2.807c-0.369-0.89-0.909-1.699-1.591-2.38z"></path>
    </symbol>

   <symbol id="icon-calendar" viewBox="0 0 32 32" fill="none" stroke="#000000">
      <path stroke-linejoin="round" stroke-linecap="round" stroke-miterlimit="4" stroke-width="2.4" d="M25.333 5.333h-18.667c-1.473 0-2.667 1.194-2.667 2.667v18.667c0 1.473 1.194 2.667 2.667 2.667h18.667c1.473 0 2.667-1.194 2.667-2.667v-18.667c0-1.473-1.194-2.667-2.667-2.667z"></path>
      <path stroke-linejoin="round" stroke-linecap="round" stroke-miterlimit="4" stroke-width="2.4" d="M21.333 2.667v5.333"></path>
      <path stroke-linejoin="round" stroke-linecap="round" stroke-miterlimit="4" stroke-width="2.4" d="M10.667 2.667v5.333"></path>
      <path stroke-linejoin="round" stroke-linecap="round" stroke-miterlimit="4" stroke-width="2.4" d="M4 13.333h24"></path>
   </symbol>

    <symbol id="icon-route" viewBox="0 0 32 32">
      <path d="M6.67 4a2.67 2.67 0 1 0 0 5.33 2.67 2.67 0 0 0 0-5.33zM1.33 6.67a5.33 5.33 0 1 1 10.67 0 5.33 5.33 0 0 1-10.67 0zM25.33 22.67a2.67 2.67 0 1 0 0 5.33 2.67 2.67 0 0 0 0-5.33zM20 25.33a5.33 5.33 0 1 1 10.67 0 5.33 5.33 0 0 1-10.67 0z"/>
      <path d="M13.33 6.67c0-.74.6-1.34 1.34-1.34h8.4c4.13 0 5.62 5.4 1.98 7.43l-15.47 8.8a1.3 1.3 0 0 0 .69 2.44h7.06a1.33 1.33 0 0 1 0 2.67h-7.06c-4.13 0-5.62-5.4-2-7.43l15.48-8.8A1.3 1.3 0 0 0 23.07 8h-8.4c-.74 0-1.34-.6-1.34-1.33z"/>
    </symbol>
    <symbol id="icon-map" viewBox="0 0 29 32" fill="none" >
      <path stroke-linejoin="round" stroke-linecap="round" stroke-width="2.4" d="M26.4 13.33c0 9.34-12 17.34-12 17.34s-12-8-12-17.34a12 12 0 1 1 24 0z"/>
      <path stroke-linejoin="round" stroke-linecap="round" stroke-width="2.4" d="M14.4 17.33a4 4 0 1 0 0-8 4 4 0 0 0 0 8z"/>
    </symbol>
   <symbol id="icon-microwave" viewBox="0 0 32 32" fill="none" stroke="#000000">
      <path stroke-linejoin="round" stroke-linecap="round" stroke-miterlimit="4" stroke-width="2.24" d="M29.714 5.714h-27.429c-0.303 0-0.594 0.12-0.808 0.335s-0.335 0.505-0.335 0.808v18.286c0 0.303 0.12 0.594 0.335 0.808s0.505 0.335 0.808 0.335h27.429c0.303 0 0.594-0.12 0.808-0.335s0.335-0.505 0.335-0.808v-18.286c0-0.303-0.12-0.594-0.335-0.808s-0.505-0.335-0.808-0.335z"></path>
      <path stroke-linejoin="round" stroke-linecap="round" stroke-miterlimit="4" stroke-width="2.24" d="M25.143 11.428h1.143M25.143 16h1.143M19.428 10.286h-12.571c-0.303 0-0.594 0.12-0.808 0.335s-0.335 0.505-0.335 0.808v9.143c0 0.303 0.12 0.594 0.335 0.808s0.505 0.335 0.808 0.335h12.571c0.303 0 0.594-0.12 0.808-0.335s0.335-0.505 0.335-0.808v-9.143c0-0.303-0.12-0.594-0.335-0.808s-0.505-0.335-0.808-0.335z"></path>
   </symbol>
    <symbol id="icon-water" viewBox="0 0 32 32">
      <path stroke-miterlimit="10" stroke-width="2.4" d="M25 20c0 5.52-3.48 9-9 9s-9-3.48-9-9c0-5.93 6.45-13.93 8.43-16.24a.76.76 0 0 1 .57-.27.74.74 0 0 1 .57.27C18.55 6.07 25 14.07 25 20z"/>
      <path stroke-linejoin="round" stroke-linecap="round" stroke-width="2.4" d="M21.5 20.5A4.5 4.5 0 0 1 17 25"/>
    </symbol>
    <symbol id="icon-freezer" viewBox="0 0 32 32" fill="none">
      <path stroke-linejoin="round" stroke-linecap="round" stroke-width="2.08" d="M23.4 3H8.6a2 2 0 0 0-2 2v20.39c0 1.1.9 2 2 2h14.8a2 2 0 0 0 2-2V5a2 2 0 0 0-2-2z"/>
      <path stroke-linejoin="round" stroke-linecap="round" stroke-width="2.08" d="M6.6 13.13h18.8M10.3 10.57V6.53m0 12.91V15.4M8.43 27.39v.7a.91.91 0 0 0 .9.91h1.65a.91.91 0 0 0 .92-.91v-.7m8.2 0v.7a.91.91 0 0 0 .91.91h1.66a.91.91 0 0 0 .91-.91v-.7"/>
    </symbol>
    <symbol id="icon-microwave" viewBox="0 0 32 32">
      <path stroke-linejoin="round" stroke-linecap="round" stroke-miterlimit="4" stroke-width="2.24" d="M29.714 5.714h-27.429c-0.303 0-0.594 0.12-0.808 0.335s-0.335 0.505-0.335 0.808v18.286c0 0.303 0.12 0.594 0.335 0.808s0.505 0.335 0.808 0.335h27.429c0.303 0 0.594-0.12 0.808-0.335s0.335-0.505 0.335-0.808v-18.286c0-0.303-0.12-0.594-0.335-0.808s-0.505-0.335-0.808-0.335z"></path>
      <path stroke-linejoin="round" stroke-linecap="round" stroke-miterlimit="4" stroke-width="2.24" d="M25.143 11.428h1.143M25.143 16h1.143M19.428 10.286h-12.571c-0.303 0-0.594 0.12-0.808 0.335s-0.335 0.505-0.335 0.808v9.143c0 0.303 0.12 0.594 0.335 0.808s0.505 0.335 0.808 0.335h12.571c0.303 0 0.594-0.12 0.808-0.335s0.335-0.505 0.335-0.808v-9.143c0-0.303-0.12-0.594-0.335-0.808s-0.505-0.335-0.808-0.335z"></path>
    </symbol>
    <symbol id="icon-bath" viewBox="0 0 32 32" fill="none">
      <path stroke-linejoin="round" stroke-linecap="round" stroke-width="3.2" d="m2.67 2.67 4.16 4.16m11.67 0A8.25 8.25 0 0 0 6.83 18.5M21 4.33 4.33 21m15 3.33v.02m-6.66-1.68v.01m5-5.01v.01m5-5.01v.01m-8.34 16.65v.02m10-10.02v.02m5-5.02v.02"/>
    </symbol>
    <symbol id="icon-paper" viewBox="0 0 32 32" stroke="none">
      <path d="M24 4c1.94 0 3.27 1.65 4.04 3.31a16.06 16.06 0 0 1 1.29 6.15v13.21a1.34 1.34 0 0 1-.86 1.24c-.16.07-.34.1-.52.09l-.17-.02-3.78-.63-3.78.63c-.16.03-.32.02-.48 0l-.16-.05-3.58-1.2-3.58 1.2a1.33 1.33 0 0 1-1.74-1.1l-.01-.16v-3.9C9.96 23.5 9.07 24 8 24c-1.94 0-3.27-1.65-4.04-3.31-.82-1.78-1.3-4.15-1.3-6.7s.48-4.9 1.3-6.68c.74-1.59 1.98-3.16 3.78-3.3L8 4h16zm0 2.67H11.7c.13.21.24.43.34.64.82 1.78 1.3 4.15 1.3 6.7v10.8l2.24-.74c.27-.1.57-.1.84 0l3.69 1.23 3.67-.61c.14-.03.3-.03.44 0l2.45.4V14c0-2.24-.43-4.21-1.05-5.57-.68-1.47-1.35-1.76-1.62-1.76zm-16 0c-.27 0-.94.29-1.62 1.76C5.76 9.8 5.33 11.75 5.33 14s.43 4.21 1.05 5.57c.68 1.47 1.35 1.76 1.62 1.76s.94-.29 1.62-1.76c.62-1.36 1.05-3.33 1.05-5.57s-.43-4.21-1.05-5.57C8.94 6.96 8.27 6.67 8 6.67zm0 4.66c.74 0 1.33 1.2 1.33 2.67s-.6 2.67-1.33 2.67c-.74 0-1.33-1.2-1.33-2.67s.6-2.67 1.33-2.67z"/>
    </symbol>
    <symbol id="icon-hob" viewBox="0 0 32 32">
      <path fill="none" stroke="#101828" style="stroke:var(--color2, #101828)" stroke-width="2.4" d="M12 5.87h16c.35 0 .7.14.94.39s.4.59.4.94v17.33c0 .36-.15.7-.4.95s-.59.39-.94.39H12m0-20H4c-.35 0-.7.14-.94.39s-.4.59-.4.94v17.33c0 .36.15.7.4.95s.59.39.94.39h8m0-20v20"/>
      <path fill="none" stroke="#101828" style="stroke:var(--color2, #101828)" stroke-linejoin="round" stroke-linecap="round" stroke-width="2.4" d="M7.33 10.53v2.67m17.34-3.33-8 11.33"/>
      <path d="M8.67 17.2a1.33 1.33 0 1 0-2.67 0 1.33 1.33 0 0 0 2.67 0zM8.67 21.2a1.33 1.33 0 1 0-2.67 0 1.33 1.33 0 0 0 2.67 0z"/>
    </symbol>
    <symbol id="icon-radio" viewBox="0 0 32 32" fill="none">
      <path stroke-width="2.31" d="M1.19 18.96c0-5.58 0-8.38 1.73-10.11C4.66 7.1 7.45 7.1 13.04 7.1h5.92c5.59 0 8.38 0 10.12 1.74 1.74 1.73 1.74 4.53 1.74 10.11s0 8.38-1.74 10.12c-1.74 1.74-4.53 1.74-10.12 1.74h-5.92c-5.59 0-8.38 0-10.12-1.74C1.2 27.34 1.2 24.55 1.2 18.96z"/>
      <path stroke-width="2.31" d="M5.63 14.52a2.96 2.96 0 0 1 2.96-2.96h14.82a2.96 2.96 0 1 1 0 5.92H8.59a2.96 2.96 0 0 1-2.96-2.96zm5.93 8.89a2.22 2.22 0 1 1-4.45 0 2.22 2.22 0 0 1 4.45 0z"/>
      <path stroke-linecap="round" stroke-width="2.31" d="M20.44 15.26v2.22m-2.96 5.93h7.4M7.86 7.1l12.6-5.92"/>
    </symbol>
    <symbol id="icon-cd" viewBox="0 0 32 32" fill="none">
      <path stroke-width="2.67" d="M16 29.33a13.33 13.33 0 1 0 0-26.66 13.33 13.33 0 0 0 0 26.66z"/>
      <path stroke-linecap="round" stroke-width="2.67" d="M7.85 16c0-4.5 3.65-8.15 8.15-8.15"/>
      <path stroke-width="2.67" d="M16 19.7a3.7 3.7 0 1 0 0-7.4 3.7 3.7 0 0 0 0 7.4z"/>
    </symbol>
    <symbol id="icon-hotel-air-conditioner" viewBox="0 0 32 32">
      <path stroke-linejoin="round" stroke-linecap="round" stroke-width="2.4" d="M28.57 1.14H3.43a2.29 2.29 0 0 0-2.29 2.29v11.43a2.29 2.29 0 0 0 2.29 2.28h25.14a2.29 2.29 0 0 0 2.29-2.28V3.43a2.28 2.28 0 0 0-2.29-2.29z"/>
      <path stroke-linejoin="round" stroke-linecap="round" stroke-width="2.4" d="M25.14 17.14v-4.57a2.28 2.28 0 0 0-2.28-2.28H9.14a2.29 2.29 0 0 0-2.28 2.28v4.57M5.7 28.57h.23a3.2 3.2 0 0 0 3.2-3.2v-2.51m17.15 5.71h-.23a3.2 3.2 0 0 1-3.2-3.2v-2.51m-6.86 8v-8"/>
    </symbol>
    <symbol id="icon-bed" viewBox="0 0 32 32" fill="transparent">
      <path stroke-linejoin="round" stroke-linecap="round" stroke-width="2.24" d="M3 26v-7a4.01 4.01 0 0 1 4-4h18a4.01 4.01 0 0 1 4 4v7m-5-11H6V8.5A2.51 2.51 0 0 1 8.5 6h15A2.51 2.51 0 0 1 26 8.5V15h-2z"/>
      <path stroke-linejoin="round" stroke-linecap="round" stroke-width="2.24" d="M3 26v-.5A1.5 1.5 0 0 1 4.5 24h23a1.5 1.5 0 0 1 1.5 1.5v.5M7 15v-1a2.01 2.01 0 0 1 2-2h5a2.01 2.01 0 0 1 2 2m0 0v1m0-1a2 2 0 0 1 2-2h5a2.01 2.01 0 0 1 2 2v1"/>
    </symbol>
    <symbol id="icon-kitchen" viewBox="0 0 32 32"  fill="transparent">
      <path stroke-linejoin="round" stroke-linecap="round" stroke-width="2.67" d="M26.37 20.44V2.67c-7.13 6.8-7.44 12.32-7.4 17.77h7.4zm0 0v8.9h-1.48v-4.45M10.07 4.15v25.18M5.63 4.15v4.44a4.44 4.44 0 1 0 8.89 0V4.15"/>
    </symbol>
    <symbol id="icon-petrol" viewBox="0 0 32 32" stroke="white">
      <path d="m27.95 8.05.02-.02-6.2-6.2L20 3.6l3.52 3.52a4.15 4.15 0 1 0 3.15 7.7v12.01a1.67 1.67 0 0 1-3.34 0v-7.5A3.33 3.33 0 0 0 20 16h-1.67V4.33A3.33 3.33 0 0 0 15 1H5a3.33 3.33 0 0 0-3.33 3.33V31h16.67V18.5h2.5v8.33a4.17 4.17 0 1 0 8.33 0V11c0-1.15-.47-2.2-1.22-2.95zM15 18.5v9.17H5V16h10v2.5zm0-5.83H5V4.33h10v8.34zm10 0a1.67 1.67 0 1 1 0-3.34 1.67 1.67 0 0 1 0 3.34z"/>
    </symbol>
    <symbol id="icon-ac" viewBox="0 0 38 32">
      <path d="M18.629 0.384c-1.729 0-3.405 0.615-4.742 1.739s-2.254 2.689-2.594 4.428l-0.134 0.69c-0.036 0.154-0.040 0.314-0.014 0.471s0.083 0.306 0.166 0.439c0.084 0.133 0.192 0.248 0.32 0.338s0.272 0.151 0.423 0.183c0.152 0.031 0.308 0.031 0.459-0.002s0.295-0.095 0.422-0.185c0.127-0.090 0.235-0.206 0.318-0.34s0.138-0.284 0.163-0.44l0.136-0.688c0.255-1.289 0.968-2.436 2.001-3.217s2.31-1.142 3.587-1.012c1.277 0.13 2.461 0.741 3.323 1.716s1.341 2.242 1.345 3.558c0 1.41-0.546 2.763-1.518 3.76s-2.291 1.558-3.666 1.559h-16.704c-0.306 0-0.599 0.125-0.815 0.346s-0.337 0.522-0.337 0.835c0 0.313 0.121 0.614 0.337 0.835s0.509 0.346 0.815 0.346h16.704c1.954-0.049 3.811-0.88 5.177-2.314s2.13-3.359 2.13-5.364c0-2.005-0.763-3.93-2.127-5.365s-3.221-2.267-5.175-2.317zM31.872 11.018c-1.528 0-2.993 0.622-4.073 1.73s-1.687 2.611-1.687 4.177c0 0.313 0.121 0.614 0.337 0.835s0.509 0.346 0.815 0.346c0.306 0 0.599-0.125 0.815-0.346s0.337-0.522 0.337-0.835c0-0.701 0.203-1.386 0.582-1.969s0.92-1.037 1.551-1.306c0.631-0.268 1.326-0.338 1.997-0.202s1.286 0.474 1.77 0.97c0.483 0.496 0.812 1.127 0.946 1.815s0.065 1.4-0.197 2.048c-0.262 0.648-0.705 1.201-1.273 1.591s-1.236 0.597-1.92 0.597h-29.952c-0.306 0-0.599 0.125-0.815 0.346s-0.337 0.522-0.337 0.835c0 0.313 0.121 0.614 0.337 0.835s0.509 0.346 0.815 0.346h22.464c0.764 0.002 1.496 0.314 2.035 0.869s0.841 1.307 0.839 2.090c-0.002 0.783-0.306 1.534-0.848 2.087s-1.274 0.863-2.038 0.861c-0.688 0-1.354-0.249-1.88-0.704s-0.878-1.086-0.993-1.782l-0.012-0.071c-0.021-0.157-0.072-0.308-0.151-0.444s-0.183-0.255-0.307-0.348c-0.124-0.094-0.265-0.161-0.415-0.198s-0.306-0.043-0.458-0.017c-0.152 0.026-0.298 0.083-0.428 0.168s-0.243 0.195-0.33 0.325c-0.088 0.13-0.149 0.277-0.181 0.432s-0.032 0.315-0.002 0.47l0.012 0.071c0.205 1.247 0.834 2.38 1.776 3.197s2.136 1.265 3.369 1.265c1.376 0.001 2.696-0.559 3.67-1.556s1.523-2.35 1.525-3.761c0-1.094-0.323-2.11-0.873-2.954h3.177c1.528 0 2.993-0.622 4.073-1.73s1.687-2.61 1.687-4.177-0.607-3.069-1.687-4.177c-1.080-1.108-2.545-1.73-4.073-1.73z"></path>
    </symbol>
    <symbol id="icon-transmission" viewBox="0 0 32 32"  fill="transparent">
      <path stroke-linejoin="round" stroke-linecap="round" stroke-width="2.67" d="M24.3 14.52h2.22a2.22 2.22 0 0 0 0-4.44H24.3v7.4m0 5.93v5.92h1.48a2.96 2.96 0 1 0 0-5.92H24.3zM3.56 5.63a2.96 2.96 0 1 0 5.92 0 2.96 2.96 0 0 0-5.92 0z"/>
      <path stroke-linejoin="round" stroke-linecap="round" stroke-width="2.67" d="M6.52 8.6v4.44A1.48 1.48 0 0 0 8 14.52h4.44m0 0v10.37a1.48 1.48 0 0 0 1.49 1.48h4.44m-5.93-11.85h5.93"/>
    </symbol>
    <symbol id="icon-adults" viewBox="0 0 32 32" stroke="none">
      <path d="M9.07 24.13h-4.4c-.27 0-.4-.13-.54-.26s-.26-.4-.13-.67c.8-2.27 2.8-3.6 5.07-3.6 2.8 0 5.06-2.4 5.06-5.2s-2.26-5.47-5.06-5.47S4 11.33 4 14.26c0 1.34.53 2.67 1.33 3.6a8.4 8.4 0 0 0-3.86 4.4c-.27.94-.14 2.14.53 3.07s1.6 1.47 2.67 1.47h4.4c.8 0 1.33-.53 1.33-1.33s-.53-1.34-1.33-1.34zm-2.4-9.86c0-1.47 1.06-2.54 2.4-2.54s2.4 1.2 2.4 2.54c0 1.46-1.07 2.53-2.4 2.53s-2.4-1.2-2.4-2.53z"/>
      <path d="M30.53 21.47A10 10 0 0 0 25.6 16a5.92 5.92 0 0 0 1.87-4.53C27.47 8 24.8 5.2 21.6 5.2s-5.87 2.8-5.87 6.27c0 1.73.67 3.33 1.87 4.53a9.99 9.99 0 0 0-4.93 5.47c-.67 1.2-.4 2.53.26 3.6s1.87 1.6 3.07 1.6h11.07c1.2 0 2.4-.67 3.07-1.6.8-1.07.93-2.4.4-3.6zM18.27 11.6c0-2 1.46-3.6 3.2-3.6s3.2 1.6 3.2 3.6-1.47 3.6-3.2 3.6c-1.74 0-3.2-1.73-3.2-3.6zm9.6 12c-.14.13-.4.53-.8.53H16c-.53 0-.8-.4-.8-.53-.13-.13-.4-.67-.13-1.2 1.06-2.8 3.73-4.67 6.53-4.67s5.47 1.87 6.53 4.67c.14.53-.13 1.07-.26 1.2z"/>
    </symbol>
    <symbol id="icon-star" viewBox="0 0 34 32">
      <path fill="#ffc531" style="fill: var(--color1, #ffc531); stroke: var(--color1, #ffc531)" stroke="#ffc531" stroke-linejoin="miter" stroke-linecap="butt" stroke-miterlimit="4" stroke-width="2.56" d="M13.227 10.020l3.84-7.277 3.84 7.277c0.34 0.644 0.959 1.093 1.675 1.217l8.108 1.403-5.735 5.9c-0.507 0.522-0.744 1.249-0.64 1.97l1.171 8.144-7.384-3.631c-0.653-0.321-1.418-0.321-2.071 0l-7.384 3.631 1.171-8.144c0.104-0.72-0.133-1.448-0.64-1.97l-5.735-5.9 8.108-1.403c0.717-0.124 1.336-0.574 1.675-1.217z"></path>
    </symbol>
    <symbol id="icon-close" viewBox="0 0 32 32">
      <path stroke-linejoin="round" stroke-linecap="round" stroke-miterlimit="4" stroke-width="3" d="M24 8l-16 16"></path>
      <path stroke-linejoin="round" stroke-linecap="round" stroke-miterlimit="4" stroke-width="3" d="M8 8l16 16"></path>
    </symbol> 
    <symbol id="icon-tv" viewBox="0 0 28 32" fill="none">
      <path stroke-linejoin="round" stroke-linecap="round" stroke-miterlimit="4" stroke-width="1.92" d="M22.4 26.667h-17.067c-2.364 0-4.267-1.903-4.267-4.267v-10.667c0-2.364 1.903-4.267 4.267-4.267h17.067c2.364 0 4.267 1.903 4.267 4.267v10.667c0 2.364-1.903 4.267-4.267 4.267z"></path>
      <path stroke-linejoin="round" stroke-linecap="round" stroke-miterlimit="4" stroke-width="1.92" d="M9.6 30.933h8.533"></path>
      <path stroke-linejoin="round" stroke-linecap="round" stroke-miterlimit="4" stroke-width="1.92" d="M13.867 7.467l6.4-6.4"></path>
      <path stroke-linejoin="round" stroke-linecap="round" stroke-miterlimit="4" stroke-width="1.92" d="M13.867 7.467l-6.4-6.4"></path>
    </symbol>
    <symbol id="icon-shower" viewBox="0 0 32 32" fill="none">
       <path stroke-linejoin="round" stroke-linecap="round" stroke-miterlimit="4" stroke-width="2.6667" d="M1.778 1.778l4.444 4.444M18.667 6.222c-1.656-1.623-3.885-2.527-6.204-2.515s-4.539 0.938-6.178 2.577c-1.639 1.639-2.566 3.86-2.577 6.178s0.892 4.548 2.515 6.204M21.333 3.556l-17.778 17.778M19.555 24.889v0.018M12.444 23.111v0.018M17.778 17.778v0.018M23.111 12.444v0.018M14.222 30.222v0.018M24.889 19.556v0.018M30.222 14.222v0.018"></path>
    </symbol>
    <symbol id="icon-gas" viewBox="0 0 26 32">
       <path d="M23.849 14.578c-0.433-0.533-0.96-0.996-1.449-1.458-1.261-1.067-2.691-1.831-3.896-2.951-2.804-2.596-3.425-6.88-1.637-10.169-1.788 0.409-3.35 1.333-4.686 2.347-4.874 3.698-6.794 10.223-4.498 15.823 0.075 0.178 0.151 0.356 0.151 0.587 0 0.391-0.282 0.747-0.659 0.889-0.433 0.178-0.885 0.071-1.242-0.213-0.107-0.084-0.197-0.187-0.263-0.302-2.127-2.542-2.465-6.187-1.035-9.102-3.143 2.418-4.856 6.507-4.611 10.365 0.113 0.889 0.226 1.778 0.546 2.667 0.263 1.067 0.772 2.133 1.336 3.076 2.033 3.076 5.552 5.28 9.335 5.725 4.027 0.48 8.337-0.213 11.424-2.844 3.444-2.951 4.648-7.68 2.879-11.734l-0.245-0.462c-0.395-0.818-1.449-2.24-1.449-2.24zM17.902 25.778c-0.527 0.427-1.393 0.889-2.070 1.067-2.108 0.711-4.216-0.284-5.458-1.458 2.24-0.498 3.576-2.062 3.971-3.645 0.32-1.422-0.282-2.596-0.527-3.965-0.226-1.316-0.188-2.436 0.32-3.662 0.358 0.676 0.734 1.351 1.186 1.885 1.449 1.778 3.726 2.56 4.216 4.978 0.075 0.249 0.113 0.498 0.113 0.764 0.056 1.458-0.621 3.058-1.75 4.036z"></path>
    </symbol>
    <symbol id="icon-white-star" viewBox="0 0 34 32">
       <path fill="#f2f4f7" style="fill: var(--color1, #f2f4f7); stroke: var(--color1, #f2f4f7)" stroke="#f2f4f7" stroke-linejoin="miter" stroke-linecap="butt" stroke-miterlimit="4" stroke-width="2.56" d="M13.227 10.020l3.84-7.277 3.84 7.277c0.34 0.644 0.959 1.093 1.675 1.217l8.108 1.403-5.735 5.9c-0.507 0.522-0.744 1.249-0.64 1.97l1.171 8.144-7.384-3.631c-0.653-0.321-1.418-0.321-2.071 0l-7.384 3.631 1.171-8.144c0.104-0.72-0.133-1.448-0.64-1.97l-5.735-5.9 8.108-1.403c0.717-0.124 1.336-0.574 1.675-1.217z"></path>
    </symbol>
  </defs>
</svg>